<mxfile host="app.diagrams.net" modified="2024-05-31T14:32:07.081Z" agent="Mozilla/5.0 (X11; Linux x86_64; rv:126.0) Gecko/20100101 Firefox/126.0" version="24.4.13" etag="x6Mz8LXhu2uXzg14UIh1" type="github">
  <diagram name="Page-1" id="FbxMsNr4Fx10tflfo3xf">
    <mxGraphModel>
      <root>
        <mxCell id="0" />
        <mxCell id="1" parent="0" />
      </root>
    </mxGraphModel>
  </diagram>
</mxfile>
